<?xml version="1.0" encoding="iso-8859-1"?>
<!-- Generator: Adobe Illustrator 19.0.0, SVG Export Plug-In . SVG Version: 6.00 Build 0)  -->
<svg version="1.1" id="Capa_1" xmlns="http://www.w3.org/2000/svg" xmlns:xlink="http://www.w3.org/1999/xlink" x="0px" y="0px"
	 viewBox="0 0 58 58" style="enable-background:new 0 0 58 58;" xml:space="preserve">
<g>
	<g>
		<path d="M27.484,28.125l-19-10.5c-0.31-0.171-0.687-0.165-0.992,0.014C7.187,17.818,7,18.146,7,18.5v5H1c-0.552,0-1,0.448-1,1v9
			c0,0.552,0.448,1,1,1h6v5c0,0.354,0.187,0.682,0.492,0.861C7.648,40.453,7.824,40.5,8,40.5c0.167,0,0.333-0.042,0.484-0.125
			l19-10.5C27.802,29.699,28,29.364,28,29S27.802,28.301,27.484,28.125z M9,37.805V33.5c0-0.552-0.448-1-1-1H2v-7h6
			c0.552,0,1-0.448,1-1v-4.305L24.933,29L9,37.805z"/>
		<path d="M57,23.5h-6v-5c0-0.354-0.187-0.682-0.492-0.861c-0.306-0.179-0.682-0.185-0.992-0.014l-19,10.5
			C30.198,28.301,30,28.636,30,29c0,0.364,0.198,0.699,0.516,0.875l19,10.5C49.667,40.458,49.833,40.5,50,40.5
			c0.176,0,0.352-0.046,0.508-0.139C50.813,40.182,51,39.854,51,39.5v-5h6c0.552,0,1-0.448,1-1v-9C58,23.948,57.552,23.5,57,23.5z
			 M56,32.5h-6c-0.552,0-1,0.448-1,1v4.305L33.067,29L49,20.195V24.5c0,0.552,0.448,1,1,1h6V32.5z"/>
	</g>
</g>
<g>
</g>
<g>
</g>
<g>
</g>
<g>
</g>
<g>
</g>
<g>
</g>
<g>
</g>
<g>
</g>
<g>
</g>
<g>
</g>
<g>
</g>
<g>
</g>
<g>
</g>
<g>
</g>
<g>
</g>
</svg>
